# AST/ASF file generated using VICON BodyLanguage
# -----------------------------------------------
:version 1.10
:name VICON
:units
  mass 1.0
  length 0.45
  angle deg
:documentation
   .ast/.asf automatically generated from VICON data using
   VICON BodyBuilder and BodyLanguage model FoxedUp or BRILLIANT.MOD
:root
   order TX TY TZ RX RY RZ
   axis XYZ
   position 0 0 0  
   orientation 0 0 0 
:bonedata
  begin
     id 1 
     name lhipjoint
     direction 0.521689 -0.742065 0.420928 
     length 2.47002 
     axis 0 0 0  XYZ
  end
  begin
     id 2 
     name lfemur
     direction 0.34202 -0.939693 0  
     length 7.24654  
     axis 0 0 20  XYZ
    dof rx ry rz
    limits (-160.0 20.0)
           (-70.0 70.0)
           (-60.0 70.0)
  end
  begin
     id 3 
     name ltibia
     direction 0.34202 -0.939693 0   
     length 8.04849   
     axis 0 0 20   XYZ
    dof rx
    limits (-10.0 170.0)
  end
  begin
     id 4 
     name lfoot
     direction 0.0745411 -0.2048 0.975961   
     length 1.72367   
     axis -90 7.62852e-016 20   XYZ
    dof rx rz
    limits (-45.0 90.0)
           (-70.0 20.0)
  end
  begin
     id 5 
     name ltoes
     direction 1.53556e-011 -4.21901e-011 1   
     length 0.87311   
     axis -90 7.62852e-016 20   XYZ
    dof rx
    limits (-90.0 20.0)
  end
  begin
     id 6 
     name rhipjoint
     direction -0.52849 -0.738415 0.418857   
     length 2.48223  
     axis 0 0 0  XYZ 
  end
  begin
     id 7 
     name rfemur
     direction -0.34202 -0.939693 0   
     length 7.15571   
     axis 0 0 -20   XYZ
    dof rx ry rz
    limits (-160.0 20.0)
           (-70.0 70.0)
           (-70.0 60.0)
  end
  begin
     id 8 
     name rtibia
     direction -0.34202 -0.939693 0   
     length 7.81659   
     axis 0 0 -20   XYZ
    dof rx
    limits (-10.0 170.0)
 end
 begin
     id 9 
     name rfoot
     direction -0.0917348 -0.252039 0.963359   
     length 1.84382  
     axis -90 -7.62852e-016 -20   XYZ
    dof rx rz
    limits (-45.0 90.0)
           (-20.0 70.0)
  end
  begin
     id 10 
     name rtoes
     direction -1.53551e-011 -4.21879e-011 1   
     length 0.927771   
     axis -90 -7.62852e-016 -20   XYZ
    dof rx
    limits (-90.0 20.0)
  end
  begin
     id 11 
     name lowerback
     direction 0.00583058 0.999822 0.0179296   
     length 2.1429   
     axis 0 0 0   XYZ
    dof rx ry rz
    limits (-20.0 45.0)
           (-30.0 30.0)
           (-30.0 30.0)
  end
  begin
     id 12 
     name upperback
     direction -0.0137999 0.999752 -0.0175071   
     length 2.14252   
     axis 0 0 0   XYZ
    dof rx ry rz
    limits (-20.0 45.0)
           (-30.0 30.0)
           (-30.0 30.0)
  end
  begin
     id 13 
     name thorax
     direction -0.0158036 0.99955 -0.0254909   
     length 2.1383   
     axis 0 0 0   XYZ
    dof rx ry rz
    limits (-20.0 45.0)
           (-30.0 30.0)
           (-30.0 30.0)
  end
  begin
     id 14 
     name lowerneck
     direction -0.0101179 0.999403 -0.0330262   
     length 1.65808   
     axis 0 0 0   XYZ
    dof rx ry rz
    limits (-20.0 45.0)
           (-30.0 30.0)
           (-30.0 30.0)
  end
  begin
     id 15 
     name upperneck
     direction 0.0497734 0.995978 -0.074501   
     length 1.5897   
     axis 0 0 0   XYZ
    dof rx ry rz
    limits (-20.0 45.0)
           (-30.0 30.0)
           (-30.0 30.0)
  end
  begin
     id 16
     name head
     direction 0.0189524 0.999519 -0.0245438  
     length 1.74024  
     axis 0 0 0   XYZ
    dof rx ry rz
    limits (-20.0 45.0)
           (-30.0 30.0)
           (-30.0 30.0)
  end
  begin
     id 17 
     name lclavicle
     direction 0.945604 0.324422 0.0241537  
     length 3.59089  
     axis 0 0 0   XYZ
    dof ry rz
    limits (-20.0 10.0)
           (0.0 20.0)
  end
  begin
     id 18 
     name lhumerus
     direction 1 -4.48964e-011 -2.63524e-027   
     length 5.2391   
     axis 180 -30 -90   XYZ
    dof rx ry rz
    limits (-60.0 90.0)
           (-90.0 90.0)
           (-90.0 90.0)
  end
  begin
     id 19
     name lradius
     direction 1 -4.48969e-011 3.86978e-028   
     length 3.31467   
     axis 180 -30 -90   XYZ
    dof rx
    limits (-10.0 170.0)
  end
  begin
     id 20
     name lwrist
     direction 1 -4.48963e-011 7.20928e-028   
     length 1.65734   
     axis -5.52449e-016 90 90   XYZ
    dof ry
    limits (-180.0 0.0)
 end
  begin
     id 21 
     name lhand
     direction 1 -4.48964e-011 1.44186e-027   
     length 0.9659   
     axis -9.20027e-016 90 90   XYZ
    dof rx rz
    limits (-90.0 90.0)
           (-45.0 45.0)
  end
  begin
     id 22 
     name lfingers
     direction 1 -4.48965e-011 2.88371e-027   
     length 0.778733   
     axis -1.84005e-015 90 90   XYZ
    dof rx
    limits (0.0 90.0)
  end
  begin
     id 23
     name lthumb
     direction 0.707107 -6.34931e-011 0.707107   
     length 1.11811   
     axis -90 45 2.85299e-015   XYZ
    dof rx rz
    limits (-45.0 45.0)
           (-45.0 45.0)
  end
  begin
     id 24 
     name rclavicle
     direction -0.923762 0.370785 0.0958234   
     length 3.54196  
     axis 0 0 0   XYZ 
    dof ry rz
    limits (-10.0 20.0)
           (-20.0 0.0)
  end
  begin
     id 25 
     name rhumerus
     direction -1 -4.48966e-011 1.18702e-017  
     length 5.30252   
     axis 180 30 90   XYZ
    dof rx ry rz
    limits (-90.0 60.0)
           (-90.0 90.0)
           (-90.0 90.0)
  end
  begin
     id 26 
     name rradius
     direction -1 -4.48966e-011 4.46736e-027   
     length 3.67875   
     axis 180 30 90   XYZ
    dof rx
    limits (-10.0 170.0)
  end
  begin
     id 27 
     name rwrist
     direction -1 -4.48966e-011 7.20928e-028   
     length 1.83937   
     axis -5.52449e-016 -90 -90   XYZ
    dof ry
    limits (-180.0 0.0)
  end
  begin
     id 28
     name rhand
     direction -1 -4.48973e-011 1.44186e-027   
     length 0.594811   
     axis -9.20027e-016 -90 -90   XYZ
    dof rx rz
    limits (-90.0 90.0)
           (-45.0 45.0)
  end
  begin
     id 29
     name rfingers
     direction -1 -4.48963e-011 2.88371e-027   
     length 0.479552   
     axis -1.84005e-015 -90 -90   XYZ
    dof rx
    limits (0.0 90.0)
  end
  begin
     id 30
     name rthumb
     direction -0.707107 -6.34932e-011 0.707107   
     length 0.688544   
     axis -90 -45 -2.85299e-015   XYZ
    dof rx rz
    limits (-45.0 45.0)
           (-45.0 45.0)
  end
:hierarchy
  begin
    root lhipjoint rhipjoint lowerback
    lhipjoint lfemur
    lfemur ltibia
    ltibia lfoot
    lfoot ltoes
    rhipjoint rfemur
    rfemur rtibia
    rtibia rfoot
    rfoot rtoes
    lowerback upperback
    upperback thorax
    thorax lowerneck lclavicle rclavicle
    lowerneck upperneck
    upperneck head
    lclavicle lhumerus
    lhumerus lradius
    lradius lwrist
    lwrist lhand lthumb
    lhand lfingers
    rclavicle rhumerus
    rhumerus rradius
    rradius rwrist
    rwrist rhand rthumb
    rhand rfingers
  end

#!OML:ASF E:\acrobat2\Project_11_07_03\Capture day 1\Session 1\Acrobat.ASF
:FULLY-SPECIFIED
:DEGREES
443
root 5.76346 27.7691 -1.38905 0.986585 1.14818 -0.478575
lowerback 4.26192 0.180292 0.770064
upperback 1.64706 0.272004 0.077584
thorax -0.695733 0.137937 -0.365274
lowerneck 2.35138 -2.95117 0.863766
upperneck 17.8104 -4.35027 2.19674
head 4.99999 -1.94802 0.383085
rclavicle 1.80615e-015 -2.68981e-015
rhumerus -46.4305 -14.8893 -71.8945
rradius 22.0913
rwrist 5.51164
rhand -4.19898 -22.491
rfingers 7.12502
rthumb 21.5629 -51.3106
lclavicle 1.80615e-015 -2.68981e-015
lhumerus -32.556 -1.67126 79.6545
lradius 21.9791
lwrist 4.90408
lhand 0.572466 -10.1848
lfingers 7.12502
lthumb 26.1386 18.036
rfemur -13.8194 -6.69986 17.4498
rtibia 19.7932
rfoot -16.8966 -7.48099
rtoes -13.9366
lfemur -13.8284 -6.22908 -17.1022
ltibia 18.2078
lfoot 352.462 -15.916
ltoes 29.46
444
root 5.73818 27.7722 -1.31842 1.01492 1.58202 -0.504739
lowerback 4.02345 0.146148 0.783549
upperback 1.55351 0.224602 -0.00348572
thorax -0.658694 0.11439 -0.453026
lowerneck 2.38585 -2.97817 0.764528
upperneck 17.8113 -4.3977 2.3005
head 4.99926 -1.97148 0.430549
rclavicle -6.23997e-015 -7.67806e-015
rhumerus -46.7264 -14.6858 -71.9681
rradius 22.0961
rwrist 6.16412
rhand -3.62016 -22.1918
rfingers 7.12502
rthumb 22.1187 -50.9467
lclavicle -6.23997e-015 -7.67806e-015
lhumerus -32.5467 -2.56699 80.1809
lradius 22.7165
lwrist 5.34843
lhand 0.982876 -10.57
lfingers 7.12502
lthumb 26.5315 17.592
rfemur -12.9547 -6.18414 17.8288
rtibia 18.5988
rfoot -17.3977 -8.65849
rtoes -14.3234
lfemur -13.6959 -6.176 -16.7644
ltibia 18.0823
lfoot 352.989 -16.2342
ltoes 29.9175
445
root 5.71575 27.7721 -1.2511 1.06027 1.97601 -0.609117
lowerback 3.76959 0.124891 0.915898
upperback 1.46169 0.198596 -0.065102
thorax -0.61066 0.101792 -0.588574
lowerneck 2.41773 -3.01151 0.671072
upperneck 17.8078 -4.45016 2.38001
head 4.99709 -1.99844 0.469354
rclavicle 3.72721e-015 3.03147e-015
rhumerus -47.0229 -14.4839 -72.043
rradius 22.1547
rwrist 6.89292
rhand -3.01983 -21.8393
rfingers 7.12502
rthumb 22.6949 -50.5247
lclavicle 3.72721e-015 3.03147e-015
lhumerus -32.5484 -3.39463 80.6874
lradius 23.5137
lwrist 5.83738
lhand 1.23283 -10.9654
lfingers 7.12502
lthumb 26.7707 17.1603
rfemur -12.2782 -5.74919 18.2927
rtibia 17.6931
rfoot -17.8207 -9.5944
rtoes -14.3812
lfemur -13.6184 -6.09377 -16.3228
ltibia 18.027
lfoot 353.466 -16.5303
ltoes 30.2678
446
root 5.69635 27.7699 -1.18769 1.10375 2.30722 -0.789123
lowerback 3.52966 0.119631 1.15961
upperback 1.38028 0.197276 -0.105934
thorax -0.558974 0.101766 -0.766398
lowerneck 2.44274 -3.03993 0.60266
upperneck 17.7846 -4.48771 2.40323
head 4.98805 -2.01992 0.487151
rclavicle -7.51655e-015 -7.7526e-015
rhumerus -47.2896 -14.2783 -72.1335
rradius 22.2506
rwrist 7.66213
rhand -2.45458 -21.413
rfingers 7.12502
rthumb 23.2373 -50.031
lclavicle -7.51655e-015 -7.7526e-015
lhumerus -32.5527 -4.11862 81.1622
lradius 24.3673
lwrist 6.3461
lhand 1.3367 -11.3142
lfingers 7.12502
lthumb 26.8701 16.7963
rfemur -11.8034 -5.41749 18.8314
rtibia 17.1406
rfoot -18.1885 -10.2242
rtoes -14.1078
lfemur -13.5575 -5.98759 -15.7841
ltibia 18.0175
lfoot 353.921 -16.7846
ltoes 30.7125
447
root 5.68108 27.7668 -1.12711 1.12206 2.53938 -1.02163
lowerback 3.32114 0.138153 1.49477
upperback 1.32129 0.229818 -0.133049
thorax -0.500548 0.118998 -0.982746
lowerneck 2.45119 -3.07422 0.584538
upperneck 17.7246 -4.51939 2.33007
head 4.96708 -2.04121 0.466979
rclavicle -2.41026e-015 6.06293e-015
rhumerus -47.4971 -14.0387 -72.2667
rradius 22.3779
rwrist 8.3807
rhand -1.95229 -20.9727
rfingers 7.12502
rthumb 23.7192 -49.5291
lclavicle -2.41026e-015 6.06293e-015
lhumerus -32.5428 -4.69811 81.5922
lradius 25.2665
lwrist 6.81096
lhand 1.31192 -11.5751
lfingers 7.12502
lthumb 26.8464 16.5389
rfemur -11.4978 -5.19065 19.4087
rtibia 16.9365
rfoot -18.5311 -10.5167
rtoes -13.6481
lfemur -13.4494 -5.87115 -15.1912
ltibia 18.0134
lfoot 354.295 -16.9532
ltoes 31.0869
448
root 5.66989 27.7639 -1.06886 1.10868 2.65364 -1.29443
lowerback 3.15648 0.184044 1.90164
upperback 1.28616 0.300316 -0.148196
thorax -0.440047 0.155599 -1.22832
lowerneck 2.44062 -3.111 0.616383
upperneck 17.6142 -4.53974 2.15532
head 4.93013 -2.06007 0.407612
rclavicle -6.48535e-015 -9.54166e-015
rhumerus -47.6232 -13.7458 -72.4534
rradius 22.5253
rwrist 8.97424
rhand -1.50444 -20.5951
rfingers 7.12502
rthumb 24.1486 -49.0951
lclavicle -6.48535e-015 -9.54166e-015
lhumerus -32.5078 -5.13029 81.982
lradius 26.1879
lwrist 7.21434
lhand 1.11142 -11.7285
lfingers 7.12502
lthumb 26.6545 16.415
rfemur -11.3148 -5.03013 20.0115
rtibia 17.0123
rfoot -18.8774 -10.5314
rtoes -13.2476
lfemur -13.2703 -5.74265 -14.5667
ltibia 18.001
lfoot 354.531 -17.0221
ltoes 31.1762
449
root 5.66187 27.7623 -1.01262 1.06483 2.6647 -1.57501
lowerback 3.04689 0.25104 2.3329
upperback 1.26728 0.399521 -0.156289
thorax -0.391238 0.206748 -1.48126
lowerneck 2.42947 -3.13987 0.67029
upperneck 17.4429 -4.53925 1.916
head 4.87219 -2.07179 0.325995
rclavicle -5.46658e-016 -2.01766e-014
rhumerus -47.6661 -13.3821 -72.6919
rradius 22.6793
rwrist 9.41514
rhand -1.09195 -20.3433
rfingers 7.12502
rthumb 24.5441 -48.7902
lclavicle -5.46658e-016 -2.01766e-014
lhumerus -32.4574 -5.43413 82.3427
lradius 27.1035
lwrist 7.58019
lhand 0.677133 -11.8359
lfingers 7.12502
lthumb 26.2388 16.37
rfemur -11.1946 -4.87632 20.6091
rtibia 17.246
rfoot -19.2068 -10.427
rtoes -13.2332
lfemur -13.0304 -5.58425 -13.9538
ltibia 17.9936
lfoot 354.681 -17.0186
ltoes 31.0856
